<svg xmlns="http://www.w3.org/2000/svg" width="239.11" height="225" viewBox="0 0 239.11 225"><g transform="translate(-68 -303)"><path d="M-768.232,341.2h-137.23c-.34,0-.68.01-1.02.04a6.279,6.279,0,0,0-5.99,6.48,6.285,6.285,0,0,0,5.99,6.48c.34.03.68.04,1.02.04h44.416a4.043,4.043,0,0,1,3.264,6.429h0a3.639,3.639,0,0,1-2.937,1.491h-67.863a14.081,14.081,0,0,0-1.58.09,6.2,6.2,0,0,0-5.71,6.37,6.214,6.214,0,0,0,5.74,6.38,13.071,13.071,0,0,0,1.53.08h47.153a6.581,6.581,0,0,1,5.292,10.493h0a7.289,7.289,0,0,1-5.863,2.957h-69.152a13.533,13.533,0,0,0-2.11.16,6.256,6.256,0,0,0-5.5,6.37,6.271,6.271,0,0,0,5.55,6.4,14.941,14.941,0,0,0,2,.14h60.3a1.529,1.529,0,0,1,1.231,2.437l-2.052,2.783v7.7l2,2.715a1.925,1.925,0,0,1-1.551,3.065h-42.9a18.25,18.25,0,0,0-2.95.24,6.2,6.2,0,0,0-5.37,6.3,6.209,6.209,0,0,0,5.51,6.33,19.7,19.7,0,0,0,2.66.18h52.682a7.475,7.475,0,0,1,6.018,3.043h0a7.494,7.494,0,0,1-6.035,11.937h-22.645a13.509,13.509,0,0,0-2.38.22,6.173,6.173,0,0,0-5.22,6.24,6.177,6.177,0,0,0,5.35,6.28,13.542,13.542,0,0,0,2.11.17h45.162a3.816,3.816,0,0,1,3.072,1.552h0a2.778,2.778,0,0,1-2.221,4.427l-15.383.081a7.207,7.207,0,0,0-3.72,1.07,6.336,6.336,0,0,0-3.01,5.43,6.348,6.348,0,0,0,3.07,5.47,6.955,6.955,0,0,0,3.58,1l105.68-.12,48.57-65.61V406.8Zm-68.67,13.02h48.63l-36.75,49.96h-48.63Zm0,112.97-36.75-50.03h48.63l36.75,50.03Zm63.46-1.89-40.21-54.63,40.21-54.66,40.46,54.66Z" transform="translate(1026.782 -38.197)" fill="#fff"/><text transform="translate(188 511)" fill="#fff" font-size="74" font-family="Raleway-Bold, Raleway" font-weight="700"><tspan x="-89.133" y="0">Logo</tspan></text></g></svg>