<svg xmlns="http://www.w3.org/2000/svg" xmlns:xlink="http://www.w3.org/1999/xlink" width="183" height="169.01" viewBox="0 0 183 169.01"><defs><linearGradient id="a" x1="0.5" x2="0.5" y2="1" gradientUnits="objectBoundingBox"><stop offset="0" stop-color="#0f8"/><stop offset="0.356" stop-color="#01db91"/><stop offset="0.699" stop-color="#01bc98"/><stop offset="1" stop-color="#01a79d"/></linearGradient></defs><g transform="translate(-89 -69.99)"><path d="M-812.911,340.837h-105c-.26,0-.74-.023-1,0-3.051.237-4,2.637-4,5s.949,4.763,4,5c.26.023.74,0,1,0h34c2.53,0,3.493,2.957,2,5h0a2.225,2.225,0,0,1-2,1h-52a7.276,7.276,0,0,0-1,0c-2.914.314-4,2.721-4,5s1.071,4.686,4,5a7.271,7.271,0,0,0,1,0h36a5,5,0,0,1,4,8h0c-1.051,1.422-2.231,3-4,3h-53a15.863,15.863,0,0,0-2,0,4.73,4.73,0,0,0-4,5c0,2.248,1.171,3.6,4,4,.512.069,1.488,1,2,1h46c.96,0,1.57.228,1,1l-2,3v5l2,3a1.178,1.178,0,0,1-1,2h-33a10.924,10.924,0,0,0-2,0,4.823,4.823,0,0,0-4,5c0,2.225,1.2,4.618,4,5a14.547,14.547,0,0,0,2,0h40c1.816,0,3.922.537,5,2h0c2.786,3.784-.3,9-5,9h-17a12.474,12.474,0,0,0-2,0,4.958,4.958,0,0,0-4,5,4.838,4.838,0,0,0,4,5,15.863,15.863,0,0,0,2,0h34c.927,0,2.45.254,3,1h0c1.032,1.4-.262,3.991-2,4h-12a6.282,6.282,0,0,0-3,1,4.322,4.322,0,0,0-2,4,4.247,4.247,0,0,0,2,4,6.568,6.568,0,0,0,3,1h81l37-51v-5Zm-53,10h38l-29,39h-37Zm0,87-28-39h37l29,39Zm49-2-31-42,31-41,31,41Z" transform="translate(1047.911 -270.837)" fill="url(#a)"/><text transform="translate(188 227)" fill="#00f2a8" font-size="53" font-family="Raleway-Bold, Raleway" font-weight="700"><tspan x="-63.839" y="0">Logo</tspan></text></g></svg>