<svg xmlns="http://www.w3.org/2000/svg" width="44.912" height="38" viewBox="0 0 44.912 38">
  <g id="fast" transform="translate(12.322 9.341)">
    <path id="Path_9" data-name="Path 9" d="M6.278,21.258h-4.1l-.163.828a1.017,1.017,0,0,0,1,1.209h3.11a3.717,3.717,0,0,1-.054-.679,4.5,4.5,0,0,1,.2-1.358ZM20.781,7.38A.984.984,0,0,0,19.993,7H5.735a1.032,1.032,0,0,0-1,.828l-.1.53H7.772A2.37,2.37,0,0,1,8.98,12.771a2.36,2.36,0,0,1,0,4.074,2.452,2.452,0,0,1,.964,1.1,4.758,4.758,0,0,1,5.635,4.671,3.717,3.717,0,0,1-.054.679h1.412a1.018,1.018,0,0,0,.991-.8L20.984,8.236A.983.983,0,0,0,20.781,7.38Z" transform="translate(0.715 -7)" fill="#00e699"/>
    <path id="Path_10" data-name="Path 10" d="M20.86,10H17.954a1.033,1.033,0,0,0-1,.8L14.777,20.985a1.022,1.022,0,0,0,.991,1.236H16.5a3.716,3.716,0,0,1-.054-.679,4.753,4.753,0,0,1,9.505,0,2.336,2.336,0,0,1-.027.435.888.888,0,0,0,.339-.557l1.018-4.753a1.189,1.189,0,0,0,.027-.217A6.456,6.456,0,0,0,20.86,10Z" transform="translate(5.279 -5.926)" fill="#00e699"/>
    <path id="Path_11" data-name="Path 11" d="M7.771,11.037H3.018A1.018,1.018,0,0,1,3.018,9H7.771a1.018,1.018,0,1,1,0,2.037Z" transform="translate(0.716 -6.284)" fill="#00e699"/>
    <path id="Path_12" data-name="Path 12" d="M8.129,14.037H2.018a1.018,1.018,0,0,1,0-2.037H8.129a1.018,1.018,0,0,1,0,2.037Z" transform="translate(0.358 -5.21)" fill="#00e699"/>
    <path id="Path_13" data-name="Path 13" d="M8.487,17.037H1.018a1.018,1.018,0,0,1,0-2.037H8.487a1.018,1.018,0,0,1,0,2.037Z" transform="translate(0 -4.137)" fill="#00e699"/>
    <path id="Path_14" data-name="Path 14" d="M20.395,22.79a3.395,3.395,0,1,1,3.395-3.395A3.4,3.4,0,0,1,20.395,22.79Z" transform="translate(6.084 -3.779)" fill="#00e699"/>
    <path id="Path_15" data-name="Path 15" d="M9.395,22.79a3.395,3.395,0,1,1,3.395-3.395A3.4,3.4,0,0,1,9.395,22.79Z" transform="translate(2.147 -3.779)" fill="#00e699"/>
    <circle id="Ellipse_9" data-name="Ellipse 9" cx="19" cy="19" r="19" transform="translate(-12.322 -9.341)" fill="#a5a5ac" opacity="0.1"/>
  </g>
</svg>
