<svg xmlns="http://www.w3.org/2000/svg" xmlns:xlink="http://www.w3.org/1999/xlink" width="72.201" height="45.865" viewBox="0 0 72.201 45.865">
  <defs>
    <filter id="Ellipse_12" x="0" y="15.865" width="30" height="30" filterUnits="userSpaceOnUse">
      <feOffset input="SourceAlpha"/>
      <feGaussianBlur stdDeviation="3" result="blur"/>
      <feFlood flood-color="#00e699"/>
      <feComposite operator="in" in2="blur"/>
      <feComposite in="SourceGraphic"/>
    </filter>
  </defs>
  <g id="path" transform="translate(-257 -674.391)">
    <path id="Path_46" data-name="Path 46" d="M273.453,703.837l11.1-15.158,11.951,8.59,8.217-19.047,17.553,10.458" transform="translate(-1)" fill="none" stroke="#00f3a1" stroke-width="4" stroke-dasharray="13 2"/>
    <g transform="matrix(1, 0, 0, 1, 257, 674.39)" filter="url(#Ellipse_12)">
      <circle id="Ellipse_12-2" data-name="Ellipse 12" cx="6" cy="6" r="6" transform="translate(9 24.86)" fill="#00f789"/>
    </g>
    <g id="Ellipse_13" data-name="Ellipse 13" transform="translate(317.564 685.802)" fill="#00f789" stroke="#01bb98" stroke-width="1.5">
      <ellipse cx="5.819" cy="2.909" rx="5.819" ry="2.909" stroke="none"/>
      <ellipse cx="5.819" cy="2.909" rx="5.069" ry="2.159" fill="none"/>
    </g>
    <g id="Path_47" data-name="Path 47" transform="translate(317.272 674.391)" fill="none">
      <path d="M5.728,0a5.728,5.728,0,0,1,5.728,5.728c0,1.471-5.407,8.963-5.407,8.963C6.049,14.618,0,7.421,0,5.728A5.728,5.728,0,0,1,5.728,0Z" stroke="none"/>
      <path d="M 5.728055953979492 2.999998092651367 C 4.330023288726807 2.999998092651367 3.174234390258789 4.057099342346191 3.01796817779541 5.413946151733398 C 3.18830680847168 5.764892578125 3.676428318023682 6.637761116027832 5.008445739746094 8.455488204956055 C 5.301759719848633 8.855757713317871 5.601871967315674 9.255300521850586 5.896216869354248 9.640914916992188 C 5.920650005340576 9.604282379150391 5.945103168487549 9.567567825317383 5.969595909118652 9.530738830566406 C 7.680770397186279 6.957682132720947 8.255097389221191 5.833361625671387 8.438822746276855 5.419900894165039 C 8.285224914550781 4.060227394104004 7.128108501434326 2.999998092651367 5.728055953979492 2.999998092651367 M 5.728055953979492 -1.9073486328125e-06 C 8.891575813293457 -1.9073486328125e-06 11.45611572265625 2.56453800201416 11.45611572265625 5.728057861328125 C 11.45611572265625 7.199088096618652 6.048766136169434 14.69119834899902 6.048766136169434 14.69119834899902 C 6.048766136169434 14.61809825897217 -3.814697265625e-06 7.420538425445557 -3.814697265625e-06 5.728057861328125 C -3.814697265625e-06 2.56453800201416 2.564536094665527 -1.9073486328125e-06 5.728055953979492 -1.9073486328125e-06 Z" stroke="none" fill="#01bb98"/>
    </g>
  </g>
</svg>
